<svg width="24" height="24" viewBox="0 0 24 24" fill="none" xmlns="http://www.w3.org/2000/svg">
<path fill-rule="evenodd" clip-rule="evenodd" d="M15.7853 17.4116C14.4508 18.4092 12.7944 19 11 19C6.58172 19 3 15.4183 3 11C3 6.58172 6.58172 3 11 3C15.4183 3 19 6.58172 19 11C19 12.7944 18.4092 14.4508 17.4116 15.7853L21.1269 19.5005C21.576 19.9496 21.576 20.6778 21.1269 21.1269C20.6778 21.576 19.9496 21.576 19.5005 21.1269L15.7853 17.4116ZM17 11C17 14.3137 14.3137 17 11 17C7.68629 17 5 14.3137 5 11C5 7.68629 7.68629 5 11 5C14.3137 5 17 7.68629 17 11Z" fill="#4A4A4B"/>
</svg>
