<svg width="16" height="16" viewBox="0 0 16 16" fill="none" xmlns="http://www.w3.org/2000/svg">
<path fill-rule="evenodd" clip-rule="evenodd" d="M8.09313 5.20942C8.25364 4.98471 8.56591 4.93267 8.79062 5.09317L12.2906 7.59317C12.422 7.68703 12.5 7.83856 12.5 8.00004C12.5 8.16151 12.422 8.31305 12.2906 8.40691L8.79062 10.9069C8.56591 11.0674 8.25364 11.0154 8.09313 10.7907C7.93263 10.566 7.98467 10.2537 8.20938 10.0932L10.4398 8.50004H4C3.72386 8.50004 3.5 8.27618 3.5 8.00004C3.5 7.7239 3.72386 7.50004 4 7.50004H10.4398L8.20938 5.90691C7.98467 5.7464 7.93263 5.43413 8.09313 5.20942Z" fill="#4A4A4B"/>
</svg>
