<svg width="16" height="16" viewBox="0 0 16 16" fill="none" xmlns="http://www.w3.org/2000/svg">
<path fill-rule="evenodd" clip-rule="evenodd" d="M7.90687 5.20942C8.06737 5.43413 8.01533 5.7464 7.79062 5.90691L5.56023 7.50004H12C12.2761 7.50004 12.5 7.7239 12.5 8.00004C12.5 8.27618 12.2761 8.50004 12 8.50004H5.56023L7.79062 10.0932C8.01533 10.2537 8.06737 10.566 7.90687 10.7907C7.74636 11.0154 7.43409 11.0674 7.20938 10.9069L3.70938 8.40691C3.57798 8.31305 3.5 8.16151 3.5 8.00004C3.5 7.83856 3.57798 7.68703 3.70938 7.59317L7.20938 5.09317C7.43409 4.93267 7.74636 4.98471 7.90687 5.20942Z" fill="#4A4A4B"/>
</svg>
