<svg width="16" height="16" viewBox="0 0 16 16" fill="none" xmlns="http://www.w3.org/2000/svg">
<path fill-rule="evenodd" clip-rule="evenodd" d="M7.27355 8L2.86322 3.58967C2.66262 3.38907 2.66262 3.06383 2.86322 2.86322V2.86322C3.06383 2.66262 3.38907 2.66262 3.58967 2.86322L8 7.27355L12.4103 2.86322C12.6109 2.66262 12.9362 2.66262 13.1368 2.86322V2.86322C13.3374 3.06383 13.3374 3.38907 13.1368 3.58967L8.72645 8L13.1368 12.4103C13.3374 12.6109 13.3374 12.9362 13.1368 13.1368V13.1368C12.9362 13.3374 12.6109 13.3374 12.4103 13.1368L8 8.72645L3.58967 13.1368C3.38907 13.3374 3.06383 13.3374 2.86322 13.1368V13.1368C2.66262 12.9362 2.66262 12.6109 2.86322 12.4103L7.27355 8Z" fill="white"/>
</svg>
