<svg width="93" height="32" viewBox="0 0 93 32" fill="none" xmlns="http://www.w3.org/2000/svg">
<path d="M40.3496 10.8301V14H38.8672V5.46875H42.1309C43.084 5.46875 43.8398 5.7168 44.3984 6.21289C44.9609 6.70898 45.2422 7.36523 45.2422 8.18164C45.2422 9.01758 44.9668 9.66797 44.416 10.1328C43.8691 10.5977 43.1016 10.8301 42.1133 10.8301H40.3496ZM40.3496 9.64062H42.1309C42.6582 9.64062 43.0605 9.51758 43.3379 9.27148C43.6152 9.02148 43.7539 8.66211 43.7539 8.19336C43.7539 7.73242 43.6133 7.36523 43.332 7.0918C43.0508 6.81445 42.6641 6.67188 42.1719 6.66406H40.3496V9.64062ZM49.6777 10.7129H48.0254V14H46.543V5.46875H49.543C50.5273 5.46875 51.2871 5.68945 51.8223 6.13086C52.3574 6.57227 52.625 7.21094 52.625 8.04688C52.625 8.61719 52.4863 9.0957 52.209 9.48242C51.9355 9.86523 51.5527 10.1602 51.0605 10.3672L52.9766 13.9238V14H51.3887L49.6777 10.7129ZM48.0254 9.52344H49.5488C50.0488 9.52344 50.4395 9.39844 50.7207 9.14844C51.002 8.89453 51.1426 8.54883 51.1426 8.11133C51.1426 7.6543 51.0117 7.30078 50.75 7.05078C50.4922 6.80078 50.1055 6.67188 49.5898 6.66406H48.0254V9.52344ZM60.8398 9.95703C60.8398 10.793 60.6953 11.5273 60.4062 12.1602C60.1172 12.7891 59.7031 13.2734 59.1641 13.6133C58.6289 13.9492 58.0117 14.1172 57.3125 14.1172C56.6211 14.1172 56.0039 13.9492 55.4609 13.6133C54.9219 13.2734 54.5039 12.791 54.207 12.166C53.9141 11.541 53.7656 10.8203 53.7617 10.0039V9.52344C53.7617 8.69141 53.9082 7.95703 54.2012 7.32031C54.498 6.68359 54.9141 6.19727 55.4492 5.86133C55.9883 5.52148 56.6055 5.35156 57.3008 5.35156C57.9961 5.35156 58.6113 5.51953 59.1465 5.85547C59.6855 6.1875 60.1016 6.66797 60.3945 7.29688C60.6875 7.92188 60.8359 8.65039 60.8398 9.48242V9.95703ZM59.3574 9.51172C59.3574 8.56641 59.1777 7.8418 58.8184 7.33789C58.4629 6.83398 57.957 6.58203 57.3008 6.58203C56.6602 6.58203 56.1582 6.83398 55.7949 7.33789C55.4355 7.83789 55.252 8.54688 55.2441 9.46484V9.95703C55.2441 10.8945 55.4258 11.6191 55.7891 12.1309C56.1562 12.6426 56.6641 12.8984 57.3125 12.8984C57.9688 12.8984 58.4727 12.6484 58.8242 12.1484C59.1797 11.6484 59.3574 10.918 59.3574 9.95703V9.51172ZM62.3164 14V5.46875H64.8359C65.5898 5.46875 66.2578 5.63672 66.8398 5.97266C67.4258 6.30859 67.8789 6.78516 68.1992 7.40234C68.5195 8.01953 68.6797 8.72656 68.6797 9.52344V9.95117C68.6797 10.7598 68.5176 11.4707 68.1934 12.084C67.873 12.6973 67.4141 13.1699 66.8164 13.502C66.2227 13.834 65.541 14 64.7715 14H62.3164ZM63.7988 6.66406V12.8164H64.7656C65.543 12.8164 66.1387 12.5742 66.5527 12.0898C66.9707 11.6016 67.1836 10.9023 67.1914 9.99219V9.51758C67.1914 8.5918 66.9902 7.88477 66.5879 7.39648C66.1855 6.9082 65.6016 6.66406 64.8359 6.66406H63.7988ZM76.3965 5.46875V11.1699C76.3965 12.0762 76.1055 12.7949 75.5234 13.3262C74.9453 13.8535 74.1738 14.1172 73.209 14.1172C72.2324 14.1172 71.457 13.8574 70.8828 13.3379C70.3086 12.8145 70.0215 12.0898 70.0215 11.1641V5.46875H71.498V11.1758C71.498 11.7461 71.6426 12.1816 71.9316 12.4824C72.2207 12.7832 72.6465 12.9336 73.209 12.9336C74.3496 12.9336 74.9199 12.332 74.9199 11.1289V5.46875H76.3965ZM84.4941 11.2227C84.4082 12.1328 84.0723 12.8438 83.4863 13.3555C82.9004 13.8633 82.1211 14.1172 81.1484 14.1172C80.4688 14.1172 79.8691 13.957 79.3496 13.6367C78.834 13.3125 78.4355 12.8535 78.1543 12.2598C77.873 11.666 77.7266 10.9766 77.7148 10.1914V9.39453C77.7148 8.58984 77.8574 7.88086 78.1426 7.26758C78.4277 6.6543 78.8359 6.18164 79.3672 5.84961C79.9023 5.51758 80.5195 5.35156 81.2188 5.35156C82.1602 5.35156 82.918 5.60742 83.4922 6.11914C84.0664 6.63086 84.4004 7.35352 84.4941 8.28711H83.0176C82.9473 7.67383 82.7676 7.23242 82.4785 6.96289C82.1934 6.68945 81.7734 6.55273 81.2188 6.55273C80.5742 6.55273 80.0781 6.78906 79.7305 7.26172C79.3867 7.73047 79.2109 8.41992 79.2031 9.33008V10.0859C79.2031 11.0078 79.3672 11.7109 79.6953 12.1953C80.0273 12.6797 80.5117 12.9219 81.1484 12.9219C81.7305 12.9219 82.168 12.791 82.4609 12.5293C82.7539 12.2676 82.9395 11.832 83.0176 11.2227H84.4941ZM91.8125 6.66406H89.1523V14H87.6816V6.66406H85.0449V5.46875H91.8125V6.66406ZM40.3496 24.8164H44.2227V26H38.8672V17.4688H40.3496V24.8164ZM51.793 21.957C51.793 22.793 51.6484 23.5273 51.3594 24.1602C51.0703 24.7891 50.6562 25.2734 50.1172 25.6133C49.582 25.9492 48.9648 26.1172 48.2656 26.1172C47.5742 26.1172 46.957 25.9492 46.4141 25.6133C45.875 25.2734 45.457 24.791 45.1602 24.166C44.8672 23.541 44.7188 22.8203 44.7148 22.0039V21.5234C44.7148 20.6914 44.8613 19.957 45.1543 19.3203C45.4512 18.6836 45.8672 18.1973 46.4023 17.8613C46.9414 17.5215 47.5586 17.3516 48.2539 17.3516C48.9492 17.3516 49.5645 17.5195 50.0996 17.8555C50.6387 18.1875 51.0547 18.668 51.3477 19.2969C51.6406 19.9219 51.7891 20.6504 51.793 21.4824V21.957ZM50.3105 21.5117C50.3105 20.5664 50.1309 19.8418 49.7715 19.3379C49.416 18.834 48.9102 18.582 48.2539 18.582C47.6133 18.582 47.1113 18.834 46.748 19.3379C46.3887 19.8379 46.2051 20.5469 46.1973 21.4648V21.957C46.1973 22.8945 46.3789 23.6191 46.7422 24.1309C47.1094 24.6426 47.6172 24.8984 48.2656 24.8984C48.9219 24.8984 49.4258 24.6484 49.7773 24.1484C50.1328 23.6484 50.3105 22.918 50.3105 21.957V21.5117ZM59.8086 24.8926C59.5 25.2949 59.0723 25.5996 58.5254 25.8066C57.9785 26.0137 57.3574 26.1172 56.6621 26.1172C55.9473 26.1172 55.3145 25.9551 54.7637 25.6309C54.2129 25.3066 53.7871 24.8438 53.4863 24.2422C53.1895 23.6367 53.0352 22.9316 53.0234 22.127V21.459C53.0234 20.1699 53.332 19.1641 53.9492 18.4414C54.5664 17.7148 55.4277 17.3516 56.5332 17.3516C57.4824 17.3516 58.2363 17.5859 58.7949 18.0547C59.3535 18.5234 59.6895 19.1992 59.8027 20.082H58.3496C58.1855 19.0547 57.5898 18.541 56.5625 18.541C55.8984 18.541 55.3926 18.7812 55.0449 19.2617C54.7012 19.7383 54.5234 20.4395 54.5117 21.3652V22.0215C54.5117 22.9434 54.7051 23.6602 55.0918 24.1719C55.4824 24.6797 56.0234 24.9336 56.7148 24.9336C57.4727 24.9336 58.0117 24.7617 58.332 24.418V22.748H56.5742V21.623H59.8086V24.8926ZM68.2461 21.957C68.2461 22.793 68.1016 23.5273 67.8125 24.1602C67.5234 24.7891 67.1094 25.2734 66.5703 25.6133C66.0352 25.9492 65.418 26.1172 64.7188 26.1172C64.0273 26.1172 63.4102 25.9492 62.8672 25.6133C62.3281 25.2734 61.9102 24.791 61.6133 24.166C61.3203 23.541 61.1719 22.8203 61.168 22.0039V21.5234C61.168 20.6914 61.3145 19.957 61.6074 19.3203C61.9043 18.6836 62.3203 18.1973 62.8555 17.8613C63.3945 17.5215 64.0117 17.3516 64.707 17.3516C65.4023 17.3516 66.0176 17.5195 66.5527 17.8555C67.0918 18.1875 67.5078 18.668 67.8008 19.2969C68.0938 19.9219 68.2422 20.6504 68.2461 21.4824V21.957ZM66.7637 21.5117C66.7637 20.5664 66.584 19.8418 66.2246 19.3379C65.8691 18.834 65.3633 18.582 64.707 18.582C64.0664 18.582 63.5645 18.834 63.2012 19.3379C62.8418 19.8379 62.6582 20.5469 62.6504 21.4648V21.957C62.6504 22.8945 62.832 23.6191 63.1953 24.1309C63.5625 24.6426 64.0703 24.8984 64.7188 24.8984C65.375 24.8984 65.8789 24.6484 66.2305 24.1484C66.5859 23.6484 66.7637 22.918 66.7637 21.957V21.5117Z" fill="#35BA59"/>
<rect x="0.5" y="0.5" width="31" height="31" rx="3.5" fill="white" stroke="#35BA59"/>
<rect x="3" y="3" width="26" height="26" rx="2" fill="#35BA59"/>
</svg>
